<svg width="317" height="344" viewBox="0 0 317 344" fill="none" xmlns="http://www.w3.org/2000/svg">
<path d="M105.123 138.833C77.1454 140.558 69.2173 182.832 97.14 192.155C139.267 206.222 146.14 136.301 105.123 138.833Z" fill="#61C21F"/>
<path d="M211.776 138.833C170.759 136.31 177.632 206.222 219.759 192.155C247.682 182.832 239.763 140.558 211.776 138.833Z" fill="#61C21F"/>
<path d="M230.458 60.47C222.76 41.5766 223.943 3.97322 197.929 1.55075C187.514 0.578092 172.961 0.146816 158.876 0C158.738 0 158.592 0 158.454 0C158.316 0 158.169 0 158.032 0C143.947 0.155992 129.384 0.587263 118.979 1.55992C92.9646 3.99157 94.1392 41.5857 86.4497 60.4792C110.39 58.2219 134.431 57.185 158.463 57.2492C182.495 57.185 206.536 58.2219 230.477 60.4792L230.458 60.47Z" fill="#61C21F"/>
<path d="M315.649 149.487C313.813 143.504 307.913 139.815 301.664 138.53C296.636 137.503 292.956 133.098 292.351 128.005C291.497 120.793 289.047 113.792 284.955 107.956C281.468 102.973 282.78 96.3207 287.478 92.4576C292.626 88.2274 294.067 82.4465 274.962 75.6288C252.664 67.6731 205.279 64.2505 158.867 64.2964C158.729 64.2964 158.583 64.2964 158.445 64.2964C158.307 64.2964 158.16 64.2964 158.023 64.2964C111.61 64.2505 64.2163 67.6731 41.9277 75.6288C22.8232 82.4465 24.2639 88.2274 29.4116 92.4576C34.1097 96.3207 35.4219 102.973 31.935 107.956C27.8425 113.801 25.4017 120.802 24.5391 128.005C23.9335 133.098 20.2448 137.503 15.2255 138.53C8.98581 139.806 3.08558 143.504 1.2412 149.487C-0.346253 154.653 -0.190212 177.648 0.488814 183.814C1.46147 192.577 7.80208 198.257 15.3723 198.899C20.3274 199.312 24.5208 202.919 25.4567 207.8C30.6779 234.851 53.8199 251.863 79.7238 260.471C95.9562 265.866 111.179 265.829 125.356 276.877C135.854 285.062 141.928 295.119 143.626 307.048C144.681 314.444 138.212 320.775 130.788 319.959L130.541 319.931C126.054 319.436 122.337 316.362 120.823 312.104C108.628 277.859 72.2178 260.333 36.2936 264.113C20.7861 265.747 28.8519 282.915 34.2198 291.669C55.5082 326.4 106.839 343.927 158.023 344C158.16 344 158.307 344 158.445 344C158.583 344 158.729 344 158.867 344C210.042 343.927 261.382 326.391 282.67 291.66C288.029 282.906 296.104 265.738 280.596 264.104C244.672 260.324 208.252 277.859 196.067 312.095C194.553 316.343 190.836 319.427 186.349 319.922L186.101 319.95C178.678 320.766 172.209 314.435 173.264 307.039C174.962 295.11 181.036 285.053 191.534 276.868C205.711 265.82 220.934 265.848 237.166 260.461C263.079 251.854 286.221 234.833 291.433 207.791C292.378 202.909 296.572 199.303 301.518 198.89C309.088 198.248 315.438 192.568 316.401 183.805C317.08 177.639 317.236 154.644 315.649 149.477V149.487ZM264.648 205.231C255.087 234.328 217.603 234.218 193.305 245.248C183.33 249.771 174.393 255.341 166.281 262.343C164.152 264.187 161.51 265.04 158.867 265.022V264.994C158.729 265.004 158.583 264.994 158.445 265.013C158.307 265.013 158.16 265.013 158.023 264.994V265.022C155.38 265.04 152.747 264.187 150.609 262.343C142.497 255.341 133.56 249.771 123.585 245.248C99.2871 234.227 61.8122 234.337 52.2416 205.231C48.25 193.1 48.5895 153.12 49.7824 139.173C51.0212 124.73 57.3985 114.92 72.8509 114.517C100.7 116.086 129.623 115.012 158.445 114.131C187.267 115.012 216.19 116.086 244.039 114.517C259.491 114.92 265.869 124.73 267.107 139.173C268.3 153.12 268.64 193.1 264.648 205.231Z" fill="#61C21F"/>
</svg>
