<svg width="196" height="196" viewBox="0 0 196 196" fill="none" xmlns="http://www.w3.org/2000/svg">
<g filter="url(#filter0_d_10_810)">
<path d="M50 49C50 35.7452 60.7452 25 74 25H122C135.255 25 146 35.7452 146 49V97C146 110.255 135.255 121 122 121H74C60.7452 121 50 110.255 50 97V49Z" fill="white"/>
<path d="M88.3928 67.6097C83.635 67.9031 82.2867 75.0922 87.0352 76.6776C94.1993 79.0698 95.3681 67.1791 88.3928 67.6097Z" fill="#61C21F"/>
<path d="M106.53 67.6098C99.5548 67.1806 100.724 79.0698 107.888 76.6776C112.636 75.0922 111.289 67.9031 106.53 67.6098Z" fill="#61C21F"/>
<path d="M109.707 54.2834C108.398 51.0704 108.599 44.6757 104.175 44.2637C102.404 44.0983 99.9291 44.025 97.5338 44C97.5104 44 97.4854 44 97.462 44C97.4386 44 97.4136 44 97.3902 44C94.9949 44.0265 92.5184 44.0999 90.7489 44.2653C86.325 44.6788 86.5247 51.072 85.217 54.285C89.2883 53.9011 93.3767 53.7248 97.4635 53.7357C101.55 53.7248 105.639 53.9011 109.71 54.285L109.707 54.2834Z" fill="#61C21F"/>
<path d="M124.194 69.4214C123.882 68.404 122.879 67.7767 121.816 67.5583C120.961 67.3835 120.335 66.6345 120.232 65.7684C120.087 64.5419 119.671 63.3513 118.975 62.3588C118.382 61.5115 118.605 60.3801 119.404 59.7232C120.279 59.0038 120.524 58.0207 117.275 56.8613C113.483 55.5084 105.425 54.9263 97.5323 54.9341C97.5089 54.9341 97.4839 54.9341 97.4605 54.9341C97.4371 54.9341 97.4122 54.9341 97.3887 54.9341C89.4959 54.9263 81.4361 55.5084 77.6458 56.8613C74.3969 58.0207 74.6419 59.0038 75.5173 59.7232C76.3163 60.3801 76.5394 61.5115 75.9464 62.3588C75.2505 63.3528 74.8354 64.5434 74.6887 65.7684C74.5857 66.6345 73.9584 67.3835 73.1049 67.5583C72.0437 67.7752 71.0404 68.404 70.7267 69.4214C70.4567 70.3 70.4833 74.2105 70.5988 75.2591C70.7642 76.7494 71.8424 77.7153 73.1298 77.8245C73.9725 77.8948 74.6856 78.508 74.8448 79.3382C75.7327 83.9384 79.6681 86.8315 84.0733 88.2952C86.8338 89.2128 89.4226 89.2065 91.8335 91.0853C93.6187 92.4773 94.6517 94.1875 94.9404 96.2161C95.1198 97.4739 94.0197 98.5506 92.7573 98.4117L92.7152 98.407C91.9521 98.3227 91.3201 97.8 91.0626 97.0759C88.9888 91.2523 82.7969 88.2718 76.6877 88.9147C74.0505 89.1925 75.4221 92.1121 76.335 93.6008C79.9553 99.5071 88.6845 102.488 97.3887 102.5C97.4122 102.5 97.4371 102.5 97.4605 102.5C97.4839 102.5 97.5089 102.5 97.5323 102.5C106.235 102.488 114.966 99.5056 118.586 93.5992C119.497 92.1105 120.871 89.1909 118.233 88.9132C112.124 88.2703 105.931 91.2523 103.858 97.0744C103.601 97.7969 102.969 98.3212 102.206 98.4055L102.164 98.4101C100.901 98.549 99.8012 97.4723 99.9807 96.2146C100.269 94.186 101.302 92.4757 103.088 91.0838C105.498 89.205 108.087 89.2097 110.848 88.2937C115.254 86.8299 119.19 83.9353 120.076 79.3366C120.237 78.5065 120.95 77.8932 121.791 77.823C123.079 77.7137 124.158 76.7478 124.322 75.2576C124.438 74.2089 124.464 70.2984 124.194 69.4199V69.4214ZM115.521 78.9012C113.895 83.8495 107.521 83.8307 103.389 85.7064C101.692 86.4757 100.173 87.4229 98.7932 88.6136C98.4311 88.9272 97.9817 89.0723 97.5323 89.0692V89.0645C97.5089 89.0661 97.4839 89.0645 97.4605 89.0676C97.4371 89.0676 97.4122 89.0676 97.3887 89.0645V89.0692C96.9393 89.0723 96.4915 88.9272 96.1279 88.6136C94.7484 87.4229 93.2286 86.4757 91.5323 85.7064C87.4002 83.8323 81.0273 83.851 79.3997 78.9012C78.7209 76.8383 78.7787 70.0394 78.9815 67.6675C79.1922 65.2113 80.2767 63.5432 82.9045 63.4745C87.6405 63.7414 92.5591 63.5588 97.4605 63.409C102.362 63.5588 107.281 63.7414 112.017 63.4745C114.644 63.5432 115.729 65.2113 115.94 67.6675C116.142 70.0394 116.2 76.8383 115.521 78.9012Z" fill="#61C21F"/>
</g>
<defs>
<filter id="filter0_d_10_810" x="0" y="0" width="196" height="196" filterUnits="userSpaceOnUse" color-interpolation-filters="sRGB">
<feFlood flood-opacity="0" result="BackgroundImageFix"/>
<feColorMatrix in="SourceAlpha" type="matrix" values="0 0 0 0 0 0 0 0 0 0 0 0 0 0 0 0 0 0 127 0" result="hardAlpha"/>
<feOffset dy="25"/>
<feGaussianBlur stdDeviation="25"/>
<feColorMatrix type="matrix" values="0 0 0 0 0 0 0 0 0 0 0 0 0 0 0 0 0 0 0.25 0"/>
<feBlend mode="normal" in2="BackgroundImageFix" result="effect1_dropShadow_10_810"/>
<feBlend mode="normal" in="SourceGraphic" in2="effect1_dropShadow_10_810" result="shape"/>
</filter>
</defs>
</svg>
