<svg width="54" height="59" viewBox="0 0 54 59" fill="none" xmlns="http://www.w3.org/2000/svg">
<path d="M17.8771 23.6098C13.1192 23.9031 11.771 31.0922 16.5195 32.6776C23.6835 35.0698 24.8523 23.1791 17.8771 23.6098Z" fill="white"/>
<path d="M36.0143 23.6097C29.0391 23.1806 30.2079 35.0698 37.3719 32.6776C42.1204 31.0922 40.7737 23.9031 36.0143 23.6097Z" fill="white"/>
<path d="M39.1914 10.2834C37.8822 7.07045 38.0835 0.67568 33.6596 0.263718C31.8885 0.0983094 29.4136 0.0249674 27.0183 0C26.9949 0 26.9699 0 26.9465 0C26.9231 0 26.8981 0 26.8747 0C24.4794 0.0265278 22.0029 0.099869 20.2334 0.265278C15.8095 0.6788 16.0092 7.07201 14.7015 10.285C18.7728 9.90112 22.8612 9.72479 26.948 9.73572C31.0349 9.72479 35.1233 9.90112 39.1945 10.285L39.1914 10.2834Z" fill="white"/>
<path d="M53.6787 25.4215C53.3666 24.4041 52.3633 23.7768 51.3006 23.5583C50.4454 23.3835 49.8197 22.6345 49.7167 21.7684C49.5716 20.5419 49.1549 19.3513 48.459 18.3588C47.866 17.5115 48.0891 16.3802 48.8881 15.7232C49.7635 15.0038 50.0085 14.0208 46.7596 12.8613C42.9677 11.5084 34.9095 10.9264 27.0167 10.9342C26.9933 10.9342 26.9683 10.9342 26.9449 10.9342C26.9215 10.9342 26.8965 10.9342 26.8731 10.9342C18.9803 10.9264 10.9205 11.5084 7.13017 12.8613C3.88128 14.0208 4.12628 15.0038 5.00169 15.7232C5.80065 16.3802 6.0238 17.5115 5.43082 18.3588C4.73485 19.3528 4.31977 20.5435 4.17309 21.7684C4.0701 22.6345 3.4428 23.3835 2.58923 23.5583C1.52811 23.7752 0.524729 24.4041 0.211076 25.4215C-0.0588833 26.3 -0.0323471 30.2105 0.083127 31.2592C0.248536 32.7494 1.32681 33.7153 2.61419 33.8246C3.45684 33.8948 4.16997 34.508 4.32914 35.3382C5.21704 39.9384 9.15252 42.8315 13.5577 44.2953C16.3182 45.2128 18.907 45.2066 21.3179 47.0854C23.103 48.4773 24.1361 50.1876 24.4248 52.2162C24.6042 53.4739 23.5041 54.5506 22.2417 54.4117L22.1995 54.407C21.4365 54.3228 20.8045 53.8 20.547 53.076C18.4732 47.2523 12.2812 44.2718 6.17204 44.9148C3.53486 45.1925 4.9065 48.1121 5.81937 49.6008C9.43964 55.5072 18.1689 58.4876 26.8731 58.5001C26.8965 58.5001 26.9215 58.5001 26.9449 58.5001C26.9683 58.5001 26.9933 58.5001 27.0167 58.5001C35.7194 58.4876 44.4501 55.5056 48.0704 49.5993C48.9817 48.1106 50.3549 45.191 47.7178 44.9132C41.6086 44.2703 35.4151 47.2523 33.3428 53.0744C33.0853 53.7969 32.4533 54.3212 31.6903 54.4055L31.6481 54.4102C30.3857 54.549 29.2856 53.4723 29.465 52.2146C29.7537 50.186 30.7868 48.4757 32.5719 47.0838C34.9828 45.205 37.5716 45.2097 40.3321 44.2937C44.7388 42.83 48.6743 39.9353 49.5607 35.3366C49.7214 34.5065 50.4345 33.8932 51.2756 33.823C52.563 33.7138 53.6428 32.7478 53.8067 31.2576C53.9221 30.209 53.9487 26.2985 53.6787 25.4199V25.4215ZM45.0057 34.9013C43.3797 39.8495 37.0052 39.8308 32.8731 41.7064C31.1769 42.4758 29.657 43.423 28.2775 44.6136C27.9155 44.9272 27.4661 45.0724 27.0167 45.0692V45.0646C26.9933 45.0661 26.9683 45.0646 26.9449 45.0677C26.9215 45.0677 26.8965 45.0677 26.8731 45.0646V45.0692C26.4237 45.0724 25.9759 44.9272 25.6123 44.6136C24.2328 43.423 22.7129 42.4758 21.0167 41.7064C16.8846 39.8323 10.5117 39.8511 8.88412 34.9013C8.20532 32.8383 8.26306 26.0394 8.46592 23.6675C8.67658 21.2114 9.7611 19.5432 12.3889 19.4746C17.1249 19.7414 22.0435 19.5588 26.9449 19.409C31.8463 19.5588 36.7649 19.7414 41.5009 19.4746C44.1287 19.5432 45.2132 21.2114 45.4239 23.6675C45.6267 26.0394 45.6845 32.8383 45.0057 34.9013Z" fill="white"/>
</svg>
